<?xml version="1.0" encoding="UTF-8" standalone="no"?>
<svg width="143px" height="73px" viewBox="0 0 143 73" version="1.1" xmlns="http://www.w3.org/2000/svg" xmlns:xlink="http://www.w3.org/1999/xlink">
    <!-- Generator: Sketch 43.1 (39012) - http://www.bohemiancoding.com/sketch -->
    <title>Art Deco package</title>
    <desc>Created with Sketch.</desc>
    <defs></defs>
    <g id="Page-1" stroke="none" stroke-width="1" fill="none" fill-rule="evenodd">
        <path d="M11.758,19.964 L11.758,8.372 C11.758,7.38799508 11.4100035,6.54800348 10.714,5.852 C10.0179965,5.15599652 9.17800492,4.808 8.194,4.808 C7.2339952,4.808 6.40600348,5.16199646 5.71,5.87 C5.01399652,6.57800354 4.666,7.4119952 4.666,8.372 L4.666,19.964 L11.758,19.964 Z M12.478,20.648 L3.946,20.648 L3.946,8.372 C3.946,7.19599412 4.3659958,6.19400414 5.206,5.366 C6.0460042,4.53799586 7.04199424,4.124 8.194,4.124 C9.37000588,4.124 10.3779958,4.53799586 11.218,5.366 C12.0580042,6.19400414 12.478,7.19599412 12.478,8.372 L12.478,20.648 Z M13.522,28.28 L13.522,22.448 L2.866,22.448 L2.866,28.28 L3.946,28.28 L3.946,23.528 L12.478,23.528 L12.478,28.28 L13.522,28.28 Z M2.182,28.28 L2.182,8.372 C2.182,6.71599172 2.76999412,5.29400594 3.946,4.106 C5.12200588,2.91799406 6.53799172,2.324 8.194,2.324 C9.85000828,2.324 11.2719941,2.91799406 12.46,4.106 C13.6480059,5.29400594 14.242,6.71599172 14.242,8.372 L14.242,28.28 L15.322,28.28 L15.322,8.372 C15.322,6.40399016 14.626007,4.72400696 13.234,3.332 C11.841993,1.93999304 10.1620098,1.244 8.194,1.244 C6.24999028,1.244 4.58200696,1.94599298 3.19,3.35 C1.79799304,4.75400702 1.102,6.42799028 1.102,8.372 L1.102,28.28 L2.182,28.28 Z M13.522,21.728 L13.522,8.372 C13.522,6.90799268 13.0000052,5.65400522 11.956,4.61 C10.9119948,3.56599478 9.65800732,3.044 8.194,3.044 C6.72999268,3.044 5.47600522,3.56599478 4.432,4.61 C3.38799478,5.65400522 2.866,6.90799268 2.866,8.372 L2.866,21.728 L13.522,21.728 Z M0.382,29 L0.382,8.372 C0.382,6.23598932 1.14999232,4.39400774 2.686,2.846 C4.22200768,1.29799226 6.05798932,0.524 8.194,0.524 C10.3540108,0.524 12.2019923,1.29799226 13.738,2.846 C15.2740077,4.39400774 16.042,6.23598932 16.042,8.372 L16.042,29 L11.758,29 L11.758,24.248 L4.666,24.248 L4.666,29 L0.382,29 Z M22.918,19.568 C24.5020079,19.0879976 25.797995,18.1820067 26.806,16.85 C27.814005,15.5179933 28.318,14.0240083 28.318,12.368 C28.318,10.7119917 27.814005,9.21200672 26.806,7.868 C25.797995,6.52399328 24.5020079,5.6120024 22.918,5.132 L22.918,19.568 Z M22.198,20.468 L22.198,4.232 C24.1420097,4.56800168 25.7619935,5.50399232 27.058,7.04 C28.3540065,8.57600768 29.002,10.3519899 29.002,12.368 C29.002,14.36001 28.3600064,16.1239923 27.076,17.66 C25.7919936,19.1960077 24.1660098,20.1319983 22.198,20.468 Z M29.686,28.28 L25.978,20.9 C24.5619929,21.8120046 22.9420091,22.3039996 21.118,22.376 L21.118,28.28 L22.198,28.28 L22.198,23.348 C23.3740059,23.2039993 24.4899947,22.8800025 25.546,22.376 L28.462,28.28 L29.686,28.28 Z M26.59,20.504 L30.478,28.28 L31.666,28.28 L27.958,20.828 C29.1820061,19.7479946 30.1419965,18.4700074 30.838,16.994 C31.5340035,15.5179926 31.882,13.976008 31.882,12.368 C31.882,9.31998476 30.7960109,6.71001086 28.624,4.538 C26.4519891,2.36598914 23.8420152,1.28 20.794,1.28 L19.354,1.28 L19.354,28.28 L20.434,28.28 L20.434,2.324 L20.794,2.324 C23.5540138,2.324 25.9119902,3.30799016 27.868,5.276 C29.8240098,7.24400984 30.802,9.6079862 30.802,12.368 C30.802,13.976008 30.4300037,15.4999928 29.686,16.94 C28.9419963,18.3800072 27.9100066,19.5679953 26.59,20.504 Z M21.118,21.656 C23.6140125,21.5599995 25.7319913,20.6060091 27.472,18.794 C29.2120087,16.9819909 30.082,14.8400124 30.082,12.368 C30.082,9.87198752 29.2120087,7.724009 27.472,5.924 C25.7319913,4.123991 23.6140125,3.1640006 21.118,3.044 L21.118,21.656 Z M28.03,29 L25.186,23.312 C24.4659964,23.6000014 23.710004,23.8159993 22.918,23.96 L22.918,29 L18.634,29 L18.634,0.56 L20.794,0.56 C24.0340162,0.56 26.8119884,1.71198848 29.128,4.016 C31.4440116,6.32001152 32.602,9.10398368 32.602,12.368 C32.602,13.976008 32.2720033,15.5359924 31.612,17.048 C30.9519967,18.5600076 30.022006,19.8799944 28.822,21.008 L32.818,29 L28.03,29 Z M40.342,28.28 L40.342,3.044 L33.286,3.044 L33.286,4.124 L39.298,4.124 L39.298,28.28 L40.342,28.28 Z M41.062,3.044 L41.062,28.28 L42.142,28.28 L42.142,4.124 L48.154,4.124 L48.154,3.044 L41.062,3.044 Z M33.286,1.28 L33.286,2.324 L48.154,2.324 L48.154,1.28 L33.286,1.28 Z M32.566,0.56 L48.874,0.56 L48.874,4.844 L42.862,4.844 L42.862,29 L38.578,29 L38.578,4.844 L32.566,4.844 L32.566,0.56 Z M65.65,4.844 L65.65,24.716 L69.61,24.716 C70.2580032,24.716 70.8099977,24.4880023 71.266,24.032 C71.7220023,23.5759977 71.95,23.0240032 71.95,22.376 L71.95,7.148 C71.95,6.52399688 71.7220023,5.98400228 71.266,5.528 C70.8099977,5.07199772 70.2580032,4.844 69.61,4.844 L65.65,4.844 Z M64.93,4.124 L69.61,4.124 C70.4500042,4.124 71.169997,4.41799706 71.77,5.006 C72.370003,5.59400294 72.67,6.3079958 72.67,7.148 L72.67,22.376 C72.67,23.2160042 72.370003,23.935997 71.77,24.536 C71.169997,25.136003 70.4500042,25.436 69.61,25.436 L64.93,25.436 L64.93,4.124 Z M63.85,3.044 L63.85,26.48 L69.61,26.48 C70.7380056,26.48 71.703996,26.078004 72.508,25.274 C73.312004,24.469996 73.714,23.5040056 73.714,22.376 L73.714,7.148 C73.714,6.01999436 73.312004,5.05400402 72.508,4.25 C71.703996,3.44599598 70.7380056,3.044 69.61,3.044 L63.85,3.044 Z M63.166,2.324 L69.61,2.324 C70.9300066,2.324 72.0639953,2.79799526 73.012,3.746 C73.9600047,4.69400474 74.434,5.8279934 74.434,7.148 L74.434,22.376 C74.434,23.7200067 73.9600047,24.8599953 73.012,25.796 C72.0639953,26.7320047 70.9300066,27.2 69.61,27.2 L63.166,27.2 L63.166,2.324 Z M62.086,1.28 L62.086,28.28 L69.61,28.28 C71.218008,28.28 72.6039942,27.7040058 73.768,26.552 C74.9320058,25.3999942 75.514,24.0080082 75.514,22.376 L75.514,7.148 C75.514,5.53999196 74.9380058,4.16000576 73.786,3.008 C72.6339942,1.85599424 71.2420082,1.28 69.61,1.28 L62.086,1.28 Z M61.366,0.56 L69.61,0.56 C71.4340091,0.56 72.9939935,1.20799352 74.29,2.504 C75.5860065,3.80000648 76.234,5.347991 76.234,7.148 L76.234,22.376 C76.234,24.2000091 75.5860065,25.7599935 74.29,27.056 C72.9939935,28.3520065 71.4340091,29 69.61,29 L61.366,29 L61.366,0.56 Z M93.046,26.48 L93.046,25.436 C90.7659886,25.436 88.7080092,24.7760066 86.872,23.456 C85.0359908,22.1359934 83.7460037,20.4320104 83.002,18.344 L93.334,18.344 L93.334,17.264 L81.598,17.264 C82.1740029,19.9280133 83.5299893,22.1299913 85.666,23.87 C87.8020107,25.6100087 90.2619861,26.48 93.046,26.48 Z M93.046,28.28 L93.046,27.2 C89.6139828,27.2 86.6860121,25.9880121 84.262,23.564 C81.8379879,21.1399879 80.626,18.2120172 80.626,14.78 C80.626,11.3479828 81.8439878,8.41401218 84.28,5.978 C86.7160122,3.54198782 89.637983,2.324 93.046,2.324 L93.046,1.28 C89.3259814,1.28 86.1460132,2.5999868 83.506,5.24 C80.8659868,7.8800132 79.546,11.0599814 79.546,14.78 C79.546,18.5000186 80.8659868,21.6799868 83.506,24.32 C86.1460132,26.9600132 89.3259814,28.28 93.046,28.28 Z M81.454,16.544 L93.334,16.544 L93.334,15.464 L82.426,15.464 C82.4019999,15.3199993 82.39,15.0920016 82.39,14.78 C82.39,11.8519854 83.4339896,9.34401044 85.522,7.256 C87.6100104,5.16798956 90.1179854,4.124 93.046,4.124 L93.046,3.044 C89.8299839,3.044 87.0700115,4.18998854 84.766,6.482 C82.4619885,8.77401146 81.31,11.5399838 81.31,14.78 C81.31,15.188002 81.3579995,15.7759962 81.454,16.544 Z M93.766,29 L93.046,29 C89.1339804,29 85.7860139,27.6080139 83.002,24.824 C80.2179861,22.0399861 78.826,18.6920196 78.826,14.78 C78.826,10.8679804 80.2179861,7.52001392 83.002,4.736 C85.7860139,1.95198608 89.1339804,0.56 93.046,0.56 L93.766,0.56 L93.766,4.844 L93.046,4.844 C90.3099863,4.844 87.9700097,5.81599028 86.026,7.76 C84.0819903,9.70400972 83.11,12.0319864 83.11,14.744 L94.054,14.744 L94.054,19.028 L84.082,19.028 C84.9220042,20.7560086 86.1519919,22.1359948 87.772,23.168 C89.3920081,24.2000052 91.1499905,24.716 93.046,24.716 L93.766,24.716 L93.766,29 Z M110.866,28.28 L110.866,27.2 C107.433983,27.2 104.506012,25.9880121 102.082,23.564 C99.6579879,21.1399879 98.446,18.2120172 98.446,14.78 C98.446,11.3479828 99.6639878,8.41401218 102.1,5.978 C104.536012,3.54198782 107.457983,2.324 110.866,2.324 L110.866,1.28 C107.145981,1.28 103.966013,2.5999868 101.326,5.24 C98.6859868,7.8800132 97.366,11.0599814 97.366,14.78 C97.366,18.5000186 98.6859868,21.6799868 101.326,24.32 C103.966013,26.9600132 107.145981,28.28 110.866,28.28 Z M110.866,26.48 L110.866,25.436 C107.937985,25.436 105.43001,24.3920104 103.342,22.304 C101.25399,20.2159896 100.21,17.7080146 100.21,14.78 C100.21,11.8519854 101.25399,9.34401044 103.342,7.256 C105.43001,5.16798956 107.937985,4.124 110.866,4.124 L110.866,3.044 C107.649984,3.044 104.890012,4.18998854 102.586,6.482 C100.281988,8.77401146 99.13,11.5399838 99.13,14.78 C99.13,17.9960161 100.281988,20.7499885 102.586,23.042 C104.890012,25.3340115 107.649984,26.48 110.866,26.48 Z M111.586,29 L110.866,29 C106.95398,29 103.606014,27.6080139 100.822,24.824 C98.0379861,22.0399861 96.646,18.6920196 96.646,14.78 C96.646,10.8679804 98.0379861,7.52001392 100.822,4.736 C103.606014,1.95198608 106.95398,0.56 110.866,0.56 L111.586,0.56 L111.586,4.844 L110.866,4.844 C108.129986,4.844 105.79001,5.81599028 103.846,7.76 C101.90199,9.70400972 100.93,12.0439863 100.93,14.78 C100.93,17.5160137 101.90199,19.8559903 103.846,21.8 C105.79001,23.7440097 108.129986,24.716 110.866,24.716 L111.586,24.716 L111.586,29 Z M128.398,4.844 C125.661986,4.844 123.32201,5.81599028 121.378,7.76 C119.43399,9.70400972 118.462,12.0439863 118.462,14.78 C118.462,17.5160137 119.43399,19.8559903 121.378,21.8 C123.32201,23.7440097 125.661986,24.716 128.398,24.716 C131.134014,24.716 133.47399,23.7440097 135.418,21.8 C137.36201,19.8559903 138.334,17.5160137 138.334,14.78 C138.334,12.0439863 137.36201,9.70400972 135.418,7.76 C133.47399,5.81599028 131.134014,4.844 128.398,4.844 Z M128.398,4.124 C131.326015,4.124 133.83399,5.16798956 135.922,7.256 C138.01001,9.34401044 139.054,11.8519854 139.054,14.78 C139.054,17.7080146 138.01001,20.2159896 135.922,22.304 C133.83399,24.3920104 131.326015,25.436 128.398,25.436 C125.469985,25.436 122.96201,24.3920104 120.874,22.304 C118.78599,20.2159896 117.742,17.7080146 117.742,14.78 C117.742,11.8519854 118.78599,9.34401044 120.874,7.256 C122.96201,5.16798956 125.469985,4.124 128.398,4.124 Z M128.398,3.044 C125.181984,3.044 122.422012,4.18998854 120.118,6.482 C117.813988,8.77401146 116.662,11.5399838 116.662,14.78 C116.662,17.9960161 117.813988,20.7499885 120.118,23.042 C122.422012,25.3340115 125.181984,26.48 128.398,26.48 C131.614016,26.48 134.373988,25.3340115 136.678,23.042 C138.982012,20.7499885 140.134,17.9960161 140.134,14.78 C140.134,11.5399838 138.982012,8.77401146 136.678,6.482 C134.373988,4.18998854 131.614016,3.044 128.398,3.044 Z M128.398,2.324 C131.830017,2.324 134.763988,3.54198782 137.2,5.978 C139.636012,8.41401218 140.854,11.3479828 140.854,14.78 C140.854,18.188017 139.636012,21.1099878 137.2,23.546 C134.763988,25.9820122 131.830017,27.2 128.398,27.2 C124.965983,27.2 122.038012,25.9880121 119.614,23.564 C117.189988,21.1399879 115.978,18.2120172 115.978,14.78 C115.978,11.3479828 117.195988,8.41401218 119.632,5.978 C122.068012,3.54198782 124.989983,2.324 128.398,2.324 Z M128.398,1.28 C124.677981,1.28 121.498013,2.5999868 118.858,5.24 C116.217987,7.8800132 114.898,11.0599814 114.898,14.78 C114.898,18.5000186 116.217987,21.6799868 118.858,24.32 C121.498013,26.9600132 124.677981,28.28 128.398,28.28 C132.118019,28.28 135.297987,26.9600132 137.938,24.32 C140.578013,21.6799868 141.898,18.5000186 141.898,14.78 C141.898,11.0599814 140.578013,7.8800132 137.938,5.24 C135.297987,2.5999868 132.118019,1.28 128.398,1.28 Z M128.398,0.56 C132.31002,0.56 135.657986,1.95198608 138.442,4.736 C141.226014,7.52001392 142.618,10.8679804 142.618,14.78 C142.618,18.6920196 141.226014,22.0399861 138.442,24.824 C135.657986,27.6080139 132.31002,29 128.398,29 C124.48598,29 121.138014,27.6080139 118.354,24.824 C115.569986,22.0399861 114.178,18.6920196 114.178,14.78 C114.178,10.8679804 115.569986,7.52001392 118.354,4.736 C121.138014,1.95198608 124.48598,0.56 128.398,0.56 Z M16.672,63.568 C18.2560079,63.0879976 19.551995,62.1820067 20.56,60.85 C21.568005,59.5179933 22.072,58.0240083 22.072,56.368 C22.072,54.7119917 21.568005,53.2120067 20.56,51.868 C19.551995,50.5239933 18.2560079,49.6120024 16.672,49.132 L16.672,63.568 Z M15.952,64.468 L15.952,48.232 C17.8960097,48.5680017 19.5159935,49.5039923 20.812,51.04 C22.1080065,52.5760077 22.756,54.3519899 22.756,56.368 C22.756,58.36001 22.1140064,60.1239923 20.83,61.66 C19.5459936,63.1960077 17.9200098,64.1319983 15.952,64.468 Z M15.952,67.348 C18.7120138,67.0119983 21.0159908,65.7940105 22.864,63.694 C24.7120092,61.5939895 25.636,59.1520139 25.636,56.368 C25.636,53.3199848 24.5500109,50.7100109 22.378,48.538 C20.2059891,46.3659891 17.5960152,45.28 14.548,45.28 L13.108,45.28 L13.108,72.28 L14.188,72.28 L14.188,46.324 L14.548,46.324 C17.3080138,46.324 19.6659902,47.3079902 21.622,49.276 C23.5780098,51.2440098 24.556,53.6079862 24.556,56.368 C24.556,59.0560134 23.6140094,61.3719903 21.73,63.316 C19.8459906,65.2600097 17.5600134,66.2799995 14.872,66.376 L14.872,72.28 L15.952,72.28 L15.952,67.348 Z M14.872,65.656 C17.3680125,65.5599995 19.4859913,64.6060091 21.226,62.794 C22.9660087,60.9819909 23.836,58.8400124 23.836,56.368 C23.836,53.8719875 22.9660087,51.724009 21.226,49.924 C19.4859913,48.123991 17.3680125,47.1640006 14.872,47.044 L14.872,65.656 Z M16.672,67.96 L16.672,73 L12.388,73 L12.388,44.56 L14.548,44.56 C17.7880162,44.56 20.5659884,45.7119885 22.882,48.016 C25.1980116,50.3200115 26.356,53.1039837 26.356,56.368 C26.356,59.2000142 25.4380092,61.713989 23.602,63.91 C21.7659908,66.106011 19.4560139,67.4559975 16.672,67.96 Z M40.324,63.964 L40.324,52.372 C40.324,51.3879951 39.9760035,50.5480035 39.28,49.852 C38.5839965,49.1559965 37.7440049,48.808 36.76,48.808 C35.7999952,48.808 34.9720035,49.1619965 34.276,49.87 C33.5799965,50.5780035 33.232,51.4119952 33.232,52.372 L33.232,63.964 L40.324,63.964 Z M41.044,64.648 L32.512,64.648 L32.512,52.372 C32.512,51.1959941 32.9319958,50.1940041 33.772,49.366 C34.6120042,48.5379959 35.6079942,48.124 36.76,48.124 C37.9360059,48.124 38.9439958,48.5379959 39.784,49.366 C40.6240042,50.1940041 41.044,51.1959941 41.044,52.372 L41.044,64.648 Z M42.088,72.28 L42.088,66.448 L31.432,66.448 L31.432,72.28 L32.512,72.28 L32.512,67.528 L41.044,67.528 L41.044,72.28 L42.088,72.28 Z M30.748,72.28 L30.748,52.372 C30.748,50.7159917 31.3359941,49.2940059 32.512,48.106 C33.6880059,46.9179941 35.1039917,46.324 36.76,46.324 C38.4160083,46.324 39.8379941,46.9179941 41.026,48.106 C42.2140059,49.2940059 42.808,50.7159917 42.808,52.372 L42.808,72.28 L43.888,72.28 L43.888,52.372 C43.888,50.4039902 43.192007,48.724007 41.8,47.332 C40.407993,45.939993 38.7280098,45.244 36.76,45.244 C34.8159903,45.244 33.148007,45.945993 31.756,47.35 C30.363993,48.754007 29.668,50.4279903 29.668,52.372 L29.668,72.28 L30.748,72.28 Z M42.088,65.728 L42.088,52.372 C42.088,50.9079927 41.5660052,49.6540052 40.522,48.61 C39.4779948,47.5659948 38.2240073,47.044 36.76,47.044 C35.2959927,47.044 34.0420052,47.5659948 32.998,48.61 C31.9539948,49.6540052 31.432,50.9079927 31.432,52.372 L31.432,65.728 L42.088,65.728 Z M28.948,73 L28.948,52.372 C28.948,50.2359893 29.7159923,48.3940077 31.252,46.846 C32.7880077,45.2979923 34.6239893,44.524 36.76,44.524 C38.9200108,44.524 40.7679923,45.2979923 42.304,46.846 C43.8400077,48.3940077 44.608,50.2359893 44.608,52.372 L44.608,73 L40.324,73 L40.324,68.248 L33.232,68.248 L33.232,73 L28.948,73 Z M61.42,72.28 L61.42,71.2 C57.9879828,71.2 55.0600121,69.9880121 52.636,67.564 C50.2119879,65.1399879 49,62.2120172 49,58.78 C49,55.3479828 50.2179878,52.4140122 52.654,49.978 C55.0900122,47.5419878 58.011983,46.324 61.42,46.324 L61.42,45.28 C57.6999814,45.28 54.5200132,46.5999868 51.88,49.24 C49.2399868,51.8800132 47.92,55.0599814 47.92,58.78 C47.92,62.5000186 49.2399868,65.6799868 51.88,68.32 C54.5200132,70.9600132 57.6999814,72.28 61.42,72.28 Z M61.42,70.48 L61.42,69.436 C58.4919854,69.436 55.9840104,68.3920104 53.896,66.304 C51.8079896,64.2159896 50.764,61.7080146 50.764,58.78 C50.764,55.8519854 51.8079896,53.3440104 53.896,51.256 C55.9840104,49.1679896 58.4919854,48.124 61.42,48.124 L61.42,47.044 C58.2039839,47.044 55.4440115,48.1899885 53.14,50.482 C50.8359885,52.7740115 49.684,55.5399838 49.684,58.78 C49.684,61.9960161 50.8359885,64.7499885 53.14,67.042 C55.4440115,69.3340115 58.2039839,70.48 61.42,70.48 Z M62.14,73 L61.42,73 C57.5079804,73 54.1600139,71.6080139 51.376,68.824 C48.5919861,66.0399861 47.2,62.6920196 47.2,58.78 C47.2,54.8679804 48.5919861,51.5200139 51.376,48.736 C54.1600139,45.9519861 57.5079804,44.56 61.42,44.56 L62.14,44.56 L62.14,48.844 L61.42,48.844 C58.6839863,48.844 56.3440097,49.8159903 54.4,51.76 C52.4559903,53.7040097 51.484,56.0439863 51.484,58.78 C51.484,61.5160137 52.4559903,63.8559903 54.4,65.8 C56.3440097,67.7440097 58.6839863,68.716 61.42,68.716 L62.14,68.716 L62.14,73 Z M73.948,72.28 L75.172,72.28 L71.5,64.9 C70.0359927,65.8120046 68.404009,66.3039996 66.604,66.376 L66.604,72.28 L67.684,72.28 L67.684,67.348 C68.8600059,67.2039993 69.9759947,66.8800025 71.032,66.376 L73.948,72.28 Z M65.92,45.244 L64.84,45.244 L64.84,72.28 L65.92,72.28 L65.92,45.244 Z M66.604,65.656 C69.1000125,65.5599995 71.2179913,64.6060091 72.958,62.794 C74.6980087,60.9819909 75.568,58.8400124 75.568,56.368 L75.568,45.244 L74.488,45.244 L74.488,56.368 C74.488,58.36001 73.8460064,60.1239923 72.562,61.66 C71.2779936,63.1960077 69.6520098,64.1319983 67.684,64.468 L67.684,45.244 L66.604,45.244 L66.604,65.656 Z M75.964,72.28 L77.152,72.28 L73.444,64.828 C74.6680061,63.7479946 75.6279965,62.4700074 76.324,60.994 C77.0200035,59.5179926 77.368,57.976008 77.368,56.368 L77.368,45.244 L76.288,45.244 L76.288,56.368 C76.288,57.976008 75.9160037,59.4999928 75.172,60.94 C74.4279963,62.3800072 73.3960066,63.5679953 72.076,64.504 L75.964,72.28 Z M73.516,73 L70.672,67.312 C69.9519964,67.6000014 69.196004,67.8159993 68.404,67.96 L68.404,73 L64.12,73 L64.12,44.524 L68.404,44.524 L68.404,63.568 C69.9880079,63.0879976 71.283995,62.1820067 72.292,60.85 C73.300005,59.5179933 73.804,58.0240083 73.804,56.368 L73.804,44.524 L78.088,44.524 L78.088,56.368 C78.088,57.976008 77.7580033,59.5359924 77.098,61.048 C76.4379967,62.5600076 75.508006,63.8799944 74.308,65.008 L78.304,73 L73.516,73 Z M92.272,63.964 L92.272,52.372 C92.272,51.3879951 91.9240035,50.5480035 91.228,49.852 C90.5319965,49.1559965 89.6920049,48.808 88.708,48.808 C87.7479952,48.808 86.9200035,49.1619965 86.224,49.87 C85.5279965,50.5780035 85.18,51.4119952 85.18,52.372 L85.18,63.964 L92.272,63.964 Z M92.992,64.648 L84.46,64.648 L84.46,52.372 C84.46,51.1959941 84.8799958,50.1940041 85.72,49.366 C86.5600042,48.5379959 87.5559942,48.124 88.708,48.124 C89.8840059,48.124 90.8919958,48.5379959 91.732,49.366 C92.5720042,50.1940041 92.992,51.1959941 92.992,52.372 L92.992,64.648 Z M94.036,72.28 L94.036,66.448 L83.38,66.448 L83.38,72.28 L84.46,72.28 L84.46,67.528 L92.992,67.528 L92.992,72.28 L94.036,72.28 Z M82.696,72.28 L82.696,52.372 C82.696,50.7159917 83.2839941,49.2940059 84.46,48.106 C85.6360059,46.9179941 87.0519917,46.324 88.708,46.324 C90.3640083,46.324 91.7859941,46.9179941 92.974,48.106 C94.1620059,49.2940059 94.756,50.7159917 94.756,52.372 L94.756,72.28 L95.836,72.28 L95.836,52.372 C95.836,50.4039902 95.140007,48.724007 93.748,47.332 C92.355993,45.939993 90.6760098,45.244 88.708,45.244 C86.7639903,45.244 85.096007,45.945993 83.704,47.35 C82.311993,48.754007 81.616,50.4279903 81.616,52.372 L81.616,72.28 L82.696,72.28 Z M94.036,65.728 L94.036,52.372 C94.036,50.9079927 93.5140052,49.6540052 92.47,48.61 C91.4259948,47.5659948 90.1720073,47.044 88.708,47.044 C87.2439927,47.044 85.9900052,47.5659948 84.946,48.61 C83.9019948,49.6540052 83.38,50.9079927 83.38,52.372 L83.38,65.728 L94.036,65.728 Z M80.896,73 L80.896,52.372 C80.896,50.2359893 81.6639923,48.3940077 83.2,46.846 C84.7360077,45.2979923 86.5719893,44.524 88.708,44.524 C90.8680108,44.524 92.7159923,45.2979923 94.252,46.846 C95.7880077,48.3940077 96.556,50.2359893 96.556,52.372 L96.556,73 L92.272,73 L92.272,68.248 L85.18,68.248 L85.18,73 L80.896,73 Z M112.756,46.324 L112.756,45.28 C109.035981,45.28 105.856013,46.5999868 103.216,49.24 C100.575987,51.8800132 99.256,55.0599814 99.256,58.78 C99.256,62.5000186 100.575987,65.6799868 103.216,68.32 C105.856013,70.9600132 109.035981,72.28 112.756,72.28 L112.756,71.2 C109.323983,71.2 106.396012,69.9880121 103.972,67.564 C101.547988,65.1399879 100.336,62.2120172 100.336,58.78 C100.336,55.3479828 101.553988,52.4140122 103.99,49.978 C106.426012,47.5419878 109.347983,46.324 112.756,46.324 Z M112.756,48.124 L112.756,47.044 C109.539984,47.044 106.780012,48.1899885 104.476,50.482 C102.171988,52.7740115 101.02,55.5399838 101.02,58.78 C101.02,61.372013 101.799992,63.7059896 103.36,65.782 C104.920008,67.8580104 106.923988,69.2559964 109.372,69.976 L109.372,55.36 L108.292,55.36 L108.292,68.428 C106.443991,67.5639957 104.950006,66.2680086 103.81,64.54 C102.669994,62.8119914 102.1,60.8920106 102.1,58.78 C102.1,55.8519854 103.14399,53.3440104 105.232,51.256 C107.32001,49.1679896 109.827985,48.124 112.756,48.124 Z M112.756,70.48 L112.756,69.436 C112.155997,69.436 111.616002,69.3880005 111.136,69.292 L111.136,55.36 L110.092,55.36 L110.092,70.192 C111.004005,70.384001 111.891996,70.48 112.756,70.48 Z M113.476,48.844 L112.756,48.844 C110.019986,48.844 107.68001,49.8159903 105.736,51.76 C103.79199,53.7040097 102.82,56.0439863 102.82,58.78 C102.82,60.5080086 103.245996,62.1219925 104.098,63.622 C104.950004,65.1220075 106.107993,66.3279954 107.572,67.24 L107.572,54.64 L111.856,54.64 L111.856,68.68 C112.168002,68.7040001 112.611997,68.716 113.188,68.716 L113.476,68.716 L113.476,73 L112.756,73 C108.84398,73 105.496014,71.6080139 102.712,68.824 C99.9279861,66.0399861 98.536,62.6920196 98.536,58.78 C98.536,54.8679804 99.9279861,51.5200139 102.712,48.736 C105.496014,45.9519861 108.84398,44.56 112.756,44.56 L113.476,44.56 L113.476,48.844 Z M129.604,70.48 L129.604,69.436 C127.323989,69.436 125.266009,68.7760066 123.43,67.456 C121.593991,66.1359934 120.304004,64.4320104 119.56,62.344 L129.892,62.344 L129.892,61.264 L118.156,61.264 C118.732003,63.9280133 120.087989,66.1299913 122.224,67.87 C124.360011,69.6100087 126.819986,70.48 129.604,70.48 Z M129.604,72.28 L129.604,71.2 C126.171983,71.2 123.244012,69.9880121 120.82,67.564 C118.395988,65.1399879 117.184,62.2120172 117.184,58.78 C117.184,55.3479828 118.401988,52.4140122 120.838,49.978 C123.274012,47.5419878 126.195983,46.324 129.604,46.324 L129.604,45.28 C125.883981,45.28 122.704013,46.5999868 120.064,49.24 C117.423987,51.8800132 116.104,55.0599814 116.104,58.78 C116.104,62.5000186 117.423987,65.6799868 120.064,68.32 C122.704013,70.9600132 125.883981,72.28 129.604,72.28 Z M118.012,60.544 L129.892,60.544 L129.892,59.464 L118.984,59.464 C118.96,59.3199993 118.948,59.0920016 118.948,58.78 C118.948,55.8519854 119.99199,53.3440104 122.08,51.256 C124.16801,49.1679896 126.675985,48.124 129.604,48.124 L129.604,47.044 C126.387984,47.044 123.628012,48.1899885 121.324,50.482 C119.019988,52.7740115 117.868,55.5399838 117.868,58.78 C117.868,59.188002 117.916,59.7759962 118.012,60.544 Z M130.324,73 L129.604,73 C125.69198,73 122.344014,71.6080139 119.56,68.824 C116.775986,66.0399861 115.384,62.6920196 115.384,58.78 C115.384,54.8679804 116.775986,51.5200139 119.56,48.736 C122.344014,45.9519861 125.69198,44.56 129.604,44.56 L130.324,44.56 L130.324,48.844 L129.604,48.844 C126.867986,48.844 124.52801,49.8159903 122.584,51.76 C120.63999,53.7040097 119.668,56.0319864 119.668,58.744 L130.612,58.744 L130.612,63.028 L120.64,63.028 C121.480004,64.7560086 122.709992,66.1359948 124.33,67.168 C125.950008,68.2000052 127.707991,68.716 129.604,68.716 L130.324,68.716 L130.324,73 Z" id="Art-Deco-package" fill="#50E3C2"></path>
    </g>
</svg>