<?xml version="1.0" encoding="UTF-8" standalone="no"?>
<svg width="55px" height="31px" viewBox="0 0 55 31" version="1.1" xmlns="http://www.w3.org/2000/svg" xmlns:xlink="http://www.w3.org/1999/xlink">
    <!-- Generator: Sketch 43.1 (39012) - http://www.bohemiancoding.com/sketch -->
    <title>X</title>
    <desc>Created with Sketch.</desc>
    <defs></defs>
    <g id="Page-1" stroke="none" stroke-width="1" fill="none" fill-rule="evenodd">
        <path d="M54.36,3.224 C53.0879936,4.35200564 51.6360082,4.916 50.004,4.916 C49.0919954,4.916 48.2580038,4.7360018 47.502,4.376 C46.7459962,4.0159982 46.1460022,3.6260021 45.702,3.206 C45.2579978,2.7859979 44.7000034,2.3960018 44.028,2.036 C43.3559966,1.6759982 42.6600036,1.496 41.94,1.496 C41.2439965,1.496 40.6020029,1.60999886 40.014,1.838 C39.4259971,2.06600114 38.9160022,2.34799832 38.484,2.684 L37.188,3.692 C36.7559978,4.02800168 36.240003,4.30999886 35.64,4.538 C35.039997,4.76600114 34.3920035,4.88 33.696,4.88 C32.8559958,4.88 32.1000034,4.76600114 31.428,4.538 C30.7559966,4.30999886 30.2100021,4.02800168 29.79,3.692 C29.3699979,3.35599832 28.962002,3.02000168 28.566,2.684 C28.169998,2.34799832 27.7140026,2.06600114 27.198,1.838 C26.6819974,1.60999886 26.1000032,1.496 25.452,1.496 C24.7319964,1.496 24.0840029,1.60999886 23.508,1.838 C22.9319971,2.06600114 22.4340021,2.34799832 22.014,2.684 C21.5939979,3.02000168 21.1680022,3.35599832 20.736,3.692 C20.3039978,4.02800168 19.7940029,4.30999886 19.206,4.538 C18.6179971,4.76600114 17.9520037,4.88 17.208,4.88 C16.3439957,4.88 15.5820033,4.76600114 14.922,4.538 C14.2619967,4.30999886 13.7160022,4.02800168 13.284,3.692 C12.8519978,3.35599832 12.438002,3.02000168 12.042,2.684 C11.645998,2.34799832 11.1780027,2.06600114 10.638,1.838 C10.0979973,1.60999886 9.48000348,1.496 8.784,1.496 C7.36799292,1.496 6.15600504,1.9759952 5.148,2.936 C4.13999496,3.8960048 3.61200024,5.07199304 3.564,6.464 L4.788,6.464 L5.076,20.072 L14.544,20.072 L16.272,30.98 L0.468,30.98 L1.008,6.464 L2.304,6.464 C2.35200024,4.61599076 3.02399352,3.11000582 4.32,1.946 C5.61600648,0.78199418 7.18799076,0.2 9.036,0.2 C9.80400384,0.2 10.5479964,0.3799982 11.268,0.74 C11.9880036,1.1000018 12.5819977,1.4899979 13.05,1.91 C13.5180023,2.3300021 14.1059965,2.7199982 14.814,3.08 C15.5220035,3.4400018 16.2599962,3.62 17.028,3.62 C17.8440041,3.62 18.5879966,3.4400018 19.26,3.08 C19.9320034,2.7199982 20.4839978,2.3300021 20.916,1.91 C21.3480022,1.4899979 21.9419962,1.1000018 22.698,0.74 C23.4540038,0.3799982 24.3119952,0.2 25.272,0.2 C26.2080047,0.2 27.0539962,0.3799982 27.81,0.74 C28.5660038,1.1000018 29.1599978,1.4899979 29.592,1.91 C30.0240022,2.3300021 30.5819966,2.7199982 31.266,3.08 C31.9500034,3.4400018 32.6999959,3.62 33.516,3.62 C34.3320041,3.62 35.0759966,3.44600174 35.748,3.098 C36.4200034,2.74999826 36.9659979,2.36000216 37.386,1.928 C37.8060021,1.49599784 38.3819963,1.10600174 39.114,0.758 C39.8460037,0.40999826 40.6559956,0.236 41.544,0.236 C42.4080043,0.236 43.1699967,0.34999886 43.83,0.578 C44.4900033,0.80600114 45.0359978,1.08799832 45.468,1.424 C45.9000022,1.76000168 46.313998,2.09599832 46.71,2.432 C47.106002,2.76800168 47.5619974,3.04999886 48.078,3.278 C48.5940026,3.50600114 49.1759968,3.62 49.824,3.62 C50.2080019,3.62 50.5619984,3.59600024 50.886,3.548 C51.2100016,3.49999976 51.473999,3.4460003 51.678,3.386 C51.882001,3.3259997 52.1159987,3.21200084 52.38,3.044 C52.6440013,2.87599916 52.8359994,2.74400048 52.956,2.648 C53.0760006,2.55199952 53.2979984,2.37200132 53.622,2.108 C53.9460016,1.84399868 54.1919992,1.64000072 54.36,1.496 L54.36,3.224 Z M54.36,5.456 C52.967993,6.36800456 51.4440083,6.824 49.788,6.824 C48.6839945,6.824 47.6940044,6.6440018 46.818,6.284 C45.9419956,5.9239982 45.2700023,5.5340021 44.802,5.114 C44.3339977,4.6939979 43.7880031,4.3040018 43.164,3.944 C42.5399969,3.5839982 41.9160031,3.404 41.292,3.404 C40.8119976,3.404 40.1820039,3.69199712 39.402,4.268 C38.6219961,4.84400288 37.6920054,5.41999712 36.612,5.996 C35.5319946,6.57200288 34.3800061,6.86 33.156,6.86 C32.1959952,6.86 31.2840043,6.6800018 30.42,6.32 C29.5559957,5.9599982 28.8720025,5.56400216 28.368,5.132 C27.8639975,4.69999784 27.312003,4.3040018 26.712,3.944 C26.111997,3.5839982 25.5480026,3.404 25.02,3.404 C24.1559957,3.404 23.4120031,3.703997 22.788,4.304 C22.1639969,4.904003 21.8280002,5.6239958 21.78,6.464 L22.968,6.464 L23.256,20.072 L32.832,20.072 L34.56,30.98 L18.648,30.98 L19.188,6.464 L20.484,6.464 C20.5320002,5.1439934 21.0179954,4.0940039 21.942,3.314 C22.8660046,2.5339961 23.9879934,2.144 25.308,2.144 C25.908003,2.144 26.5199969,2.3239982 27.144,2.684 C27.7680031,3.0440018 28.3259975,3.4339979 28.818,3.854 C29.3100025,4.2740021 29.9639959,4.6639982 30.78,5.024 C31.5960041,5.3840018 32.4479956,5.564 33.336,5.564 C34.2240044,5.564 35.0579961,5.3840018 35.838,5.024 C36.6180039,4.6639982 37.2419977,4.2740021 37.71,3.854 C38.1780023,3.4339979 38.7539966,3.0440018 39.438,2.684 C40.1220034,2.3239982 40.8119965,2.144 41.508,2.144 C42.2520037,2.144 42.9479968,2.31799826 43.596,2.666 C44.2440032,3.01400174 44.7839978,3.40399784 45.216,3.836 C45.6480022,4.26800216 46.2899957,4.65799826 47.142,5.006 C47.9940043,5.35400174 48.9719945,5.528 50.076,5.528 C51.6120077,5.528 53.0399934,4.97600552 54.36,3.872 L54.36,5.456 Z M54.36,7.616 C52.8719926,8.36000372 51.3000083,8.732 49.644,8.732 C46.9079863,8.732 44.4960104,7.76000972 42.408,5.816 C42.0959984,5.50399844 41.7240022,5.348 41.292,5.348 C40.9799984,5.348 40.7100011,5.44999898 40.482,5.654 C40.2539989,5.85800102 40.1160002,6.12799832 40.068,6.464 L41.148,6.464 L41.436,20.072 L51.12,20.072 L52.848,30.98 L36.828,30.98 L37.332,6.464 L38.772,6.464 C38.8200002,5.7439964 39.0839976,5.16800216 39.564,4.736 C40.0440024,4.30399784 40.6439964,4.088 41.364,4.088 C41.7960022,4.088 42.2999971,4.26199826 42.876,4.61 C43.4520029,4.95800174 44.0099973,5.34799784 44.55,5.78 C45.0900027,6.21200216 45.8219954,6.60199826 46.746,6.95 C47.6700046,7.29800174 48.6599947,7.472 49.716,7.472 C51.3720083,7.472 52.9199928,7.02800444 54.36,6.14 L54.36,7.616 Z" id="X" fill="#AE835C"></path>
    </g>
</svg>