<?xml version="1.0" encoding="UTF-8" standalone="no"?>
<svg width="55px" height="24px" viewBox="0 0 55 24" version="1.1" xmlns="http://www.w3.org/2000/svg" xmlns:xlink="http://www.w3.org/1999/xlink">
    <!-- Generator: Sketch 43.1 (39012) - http://www.bohemiancoding.com/sketch -->
    <title>E</title>
    <desc>Created with Sketch.</desc>
    <defs></defs>
    <g id="Page-1" stroke="none" stroke-width="1" fill="none" fill-rule="evenodd">
        <path d="M54.728,1.364 L48.572,1.364 L48.572,19.508 L52.388,19.508 L52.388,20.048 L48.068,20.048 L48.068,18.392 C48.0439999,17.191994 46.4720156,16.592 43.352,16.592 L42.488,16.592 C40.9759924,18.3680089 39.1460107,19.7839947 36.998,20.84 C34.8499893,21.8960053 32.6360114,22.424 30.356,22.424 C29.6119963,22.424 28.6760056,22.3160011 27.548,22.1 C27.548,22.6760029 27.3800017,23.059999 27.044,23.252 C26.7079983,23.444001 26.2160032,23.54 25.568,23.54 C24.0319923,23.54 22.6340063,23.1200042 21.374,22.28 C20.1139937,21.4399958 19.1960029,20.3120071 18.62,18.896 C18.4999994,18.8479998 18.2960014,18.824 18.008,18.824 L17.612,18.824 C15.8359911,18.824 14.6840026,19.627992 14.156,21.236 C12.1879902,21.043999 10.8200038,20.048009 10.052,18.248 C10.7960037,16.9039933 11.8159935,15.836004 13.112,15.044 C14.4080065,14.251996 15.7999926,13.856 17.288,13.856 C17.7680024,13.856 18.1399987,13.8799998 18.404,13.928 C18.6440012,13.0639957 19.0399972,12.2720036 19.592,11.552 L17.72,11.948 C17.4079984,12.0200004 16.6160064,12.2239983 15.344,12.56 C14.0719936,12.8960017 13.034004,13.1299993 12.23,13.262 C11.425996,13.3940007 10.6040042,13.46 9.764,13.46 C8.82799532,13.46 7.86800492,13.3880007 6.884,13.244 C5.89999508,13.0999993 4.85600552,12.8600017 3.752,12.524 C2.64799448,12.1879983 1.74800348,11.6660035 1.052,10.958 C0.35599652,10.2499965 0.008,9.40400492 0.008,8.42 C0.008,8.13199856 0.13999868,7.48400504 0.404,6.476 C2.78001188,7.74800636 5.39598572,8.384 8.252,8.384 C11.8760181,8.384 15.7639792,7.38800996 19.916,5.396 L20.132,5.864 C15.7639782,7.9040102 11.7440184,8.924 8.072,8.924 C5.33598632,8.924 2.8880108,8.36000564 0.728,7.232 C0.728,7.32800048 0.70400024,7.39999976 0.656,7.448 L0.62,7.7 C1.77200576,8.68400492 3.73998608,9.24799928 6.524,9.392 L6.488,9.896 C3.82398668,9.70399904 1.85600636,9.17600432 0.584,8.312 C0.584,9.24800468 0.91999664,10.0459967 1.592,10.706 C2.26400336,11.3660033 3.13399466,11.8459985 4.202,12.146 C5.27000534,12.4460015 6.26599538,12.6559994 7.19,12.776 C8.11400462,12.8960006 9.01999556,12.956 9.908,12.956 C11.3240071,12.956 13.4659857,12.5780038 16.334,11.822 C19.2020143,11.0659962 21.3919924,10.688 22.904,10.688 C25.5680133,10.688 26.9,11.6599903 26.9,13.604 C26.9,14.4440042 26.6300027,15.1519971 26.09,15.728 C25.5499973,16.3040029 24.8600042,16.592 24.02,16.592 C23.4439971,16.592 22.8380032,16.4120018 22.202,16.052 C21.5659968,15.6919982 20.8400041,15.3260019 20.024,14.954 C19.2079959,14.5819981 18.3080049,14.396 17.324,14.396 C15.931993,14.396 14.6420059,14.7439965 13.454,15.44 C12.2659941,16.1360035 11.3240035,17.083994 10.628,18.284 C11.228003,19.6040066 12.2839924,20.4079986 13.796,20.696 C14.1080016,19.9519963 14.5939967,19.3640022 15.254,18.932 C15.9140033,18.4999978 16.6519959,18.284 17.468,18.284 C18.860007,18.284 20.9119864,18.883994 23.624,20.084 C26.3360136,21.284006 28.5079918,21.884 30.14,21.884 C32.3960113,21.884 34.5559897,21.4100047 36.62,20.462 C38.6840103,19.5139953 40.4479927,18.1880085 41.912,16.484 C40.903995,16.1479983 40.2800012,15.4880049 40.04,14.504 L40.544,14.396 C40.7600011,15.5000055 41.6959917,16.052 43.352,16.052 C45.8000122,16.052 47.3719965,16.447996 48.068,17.24 L48.068,16.304 C48.068,15.9919984 47.7920028,15.1700067 47.24,13.838 C46.6879972,12.5059933 46.2680014,11.5760026 45.98,11.048 C45.0919956,9.34399148 44.0840056,7.7720072 42.956,6.332 C39.2119813,4.60399136 35.2160212,3.74 30.968,3.74 C27.1999812,3.74 23.5880173,4.44799292 20.132,5.864 L19.952,5.396 C23.5280179,3.93199268 27.2239809,3.2 31.04,3.2 C33.1280104,3.2 35.16799,3.41599784 37.16,3.848 C39.15201,4.30400228 41.1199903,4.9519958 43.064,5.792 C44.4080067,6.36800288 45.979991,6.656 47.78,6.656 C47.9000006,6.656 47.9959996,6.64400012 48.068,6.62 L48.068,0.824 L54.728,0.824 L54.728,1.364 Z M26.972,21.956 C26.179996,21.7159988 24.9320085,21.2240037 23.228,20.48 C21.5239915,19.7359963 20.1920048,19.2440012 19.232,19.004 C19.832003,20.3000065 20.7139942,21.2899966 21.878,21.974 C23.0420058,22.6580034 24.3559927,23 25.82,23 C26.6360041,23 27.044,22.7240028 27.044,22.172 C27.044,22.0759995 27.0200002,22.0040002 26.972,21.956 Z M26.36,13.604 C26.36,11.995992 25.1840118,11.192 22.832,11.192 C22.3039974,11.192 21.4880055,11.2639993 20.384,11.408 C19.6639964,12.2480042 19.1720013,13.1119956 18.908,14 C19.4360026,14.0960005 20.0779962,14.3059984 20.834,14.63 C21.5900038,14.9540016 22.0999987,15.2719984 22.364,15.584 C22.3880001,15.584 22.4179998,15.6019998 22.454,15.638 C22.4900002,15.6740002 22.5199999,15.692 22.544,15.692 C22.5920002,15.7400002 22.6279999,15.764 22.652,15.764 C22.5559995,15.5959992 22.508,15.3920012 22.508,15.152 C22.508,14.743998 22.6519986,14.3960014 22.94,14.108 L23.3,14.468 C23.107999,14.660001 23.012,14.8879987 23.012,15.152 C23.012,15.3920012 23.113999,15.607999 23.318,15.8 C23.522001,15.992001 23.7439988,16.088 23.984,16.088 C24.6320032,16.088 25.1899977,15.8360025 25.658,15.332 C26.1260023,14.8279975 26.36,14.2520032 26.36,13.604 Z M21.572,18.284 L21.5,18.464 C21.3559993,18.5120002 21.2600002,18.536 21.212,18.536 C19.9639938,18.0079974 18.8840046,17.744 17.972,17.744 C17.0119952,17.744 16.1480038,17.9119983 15.38,18.248 C15.1159987,18.3680006 14.8940009,18.5119992 14.714,18.68 C14.5339991,18.8480008 14.3300011,19.0639987 14.102,19.328 C13.8739989,19.5920013 13.7000006,19.7839994 13.58,19.904 L13.472,20.012 C13.4479999,20.012 13.4240001,20.0179999 13.4,20.03 C13.3759999,20.0420001 13.3520001,20.048 13.328,20.048 C13.0159984,20.048 12.6020026,19.8140023 12.086,19.346 C11.5699974,18.8779977 11.312,18.4880016 11.312,18.176 C12.104004,16.9519939 13.1839932,16.0520029 14.552,15.476 C14.5760001,15.476 14.6059998,15.4819999 14.642,15.494 C14.6780002,15.5060001 14.7079999,15.512 14.732,15.512 L14.84,15.62 C14.9120004,15.7880008 15.0199993,16.0219985 15.164,16.322 C15.3080007,16.6220015 15.4159996,16.8439993 15.488,16.988 C15.5120001,17.0120001 15.524,17.0599996 15.524,17.132 L15.416,17.312 L15.2,17.384 C15.1519998,17.384 15.0740005,17.288001 14.966,17.096 C14.8579995,16.903999 14.7560005,16.6940011 14.66,16.466 C14.5639995,16.2379989 14.5040001,16.1120001 14.48,16.088 C13.4959951,16.5200022 12.6200038,17.2639947 11.852,18.32 C12.2360019,18.8480026 12.7039972,19.2319988 13.256,19.472 C14.1920047,17.9839926 15.6799898,17.24 17.72,17.24 C18.7760053,17.24 19.8919941,17.4559978 21.068,17.888 C21.068,17.8639999 21.0620001,17.7800007 21.05,17.636 C21.0379999,17.4919993 21.032,17.3720005 21.032,17.276 C21.032,17.0119987 21.0679996,16.8200006 21.14,16.7 L21.356,16.664 L21.5,16.7 C21.5480002,16.7960005 21.572,16.8679998 21.572,16.916 L21.572,18.284 Z" id="E" fill="#D0011B" transform="translate(27.368000, 12.182000) scale(-1, 1) translate(-27.368000, -12.182000) "></path>
    </g>
</svg>