<?xml version="1.0" encoding="UTF-8" standalone="no"?>
<svg width="66px" height="24px" viewBox="0 0 66 24" version="1.1" xmlns="http://www.w3.org/2000/svg" xmlns:xlink="http://www.w3.org/1999/xlink">
    <!-- Generator: Sketch 43.1 (39012) - http://www.bohemiancoding.com/sketch -->
    <title>A</title>
    <desc>Created with Sketch.</desc>
    <defs></defs>
    <g id="Page-1" stroke="none" stroke-width="1" fill="none" fill-rule="evenodd">
        <path d="M34.956,20.66 L33.768,23.612 L29.736,23.612 L29.016,21.884 L24.696,21.884 L24.084,20.48 L20.52,20.48 L19.008,16.988 L10.512,16.988 L10.512,11.84 L16.776,11.84 L16.38,10.94 L24.372,7.052 L24.588,7.52 L17.064,11.192 L20.7,19.688 L23.76,19.688 L20.556,12.308 L24.228,10.508 L24.444,10.976 L21.24,12.56 L24.3,19.688 L25.74,19.688 L25.74,20.48 L24.66,20.48 L24.948,21.128 L28.692,21.128 L25.848,14.612 L29.34,12.92 L29.556,13.388 L26.532,14.828 L29.268,21.128 L30.204,21.128 L30.492,21.884 L29.556,21.884 L29.988,22.856 L33.516,22.856 L34.488,20.48 L34.956,20.66 Z M18.612,16.16 L16.992,12.344 L11.016,12.344 L11.016,16.16 L18.612,16.16 Z M12.672,13.028 C12.1679975,13.3400016 11.916,13.7719972 11.916,14.324 C11.916,14.9000029 12.1559976,15.3319986 12.636,15.62 L12.348,16.052 C11.7239969,15.6679981 11.412,15.1160036 11.412,14.396 C11.412,13.5799959 11.7359968,12.9800019 12.384,12.596 L12.672,13.028 Z M35.1,17.024 L34.344,17.744 C34.1279989,17.4799987 33.8400018,17.348 33.48,17.348 C33.1679984,17.348 32.8800013,17.4919986 32.616,17.78 C32.3519987,18.0680014 32.22,18.3679984 32.22,18.68 C32.22,18.9680014 32.3519987,19.2439987 32.616,19.508 L31.86,20.228 C31.4279978,19.7239975 31.212,19.172003 31.212,18.572 C31.212,17.9479969 31.4399977,17.4200022 31.896,16.988 C32.3520023,16.5559978 32.8919969,16.34 33.516,16.34 C34.116003,16.34 34.6439977,16.5679977 35.1,17.024 Z M63.648,0.788 C64.9440065,3.52401368 65.592,6.37998512 65.592,9.356 C65.592,12.6920167 64.788008,15.8239854 63.18,18.752 L56.556,18.752 C57.3720041,17.6959947 57.9599982,16.8800029 58.32,16.304 L57.6,16.304 C56.3039935,16.304 55.6080005,15.8360047 55.512,14.9 L48.924,14.9 C47.8919948,16.3640073 46.5660081,17.5099959 44.946,18.338 C43.3259919,19.1660041 41.616009,19.58 39.816,19.58 C38.807995,19.58 37.5720073,19.3640022 36.108,18.932 L36.612,17.456 C37.620005,17.8400019 38.7119941,18.032 39.888,18.032 C41.4000076,18.032 42.8339932,17.6960034 44.19,17.024 C45.5460068,16.3519966 46.6559957,15.4040061 47.52,14.18 L49.392,14.18 C49.392,14.2040001 49.3680002,14.2279999 49.32,14.252 C49.2719998,14.3000002 49.248,14.3359999 49.248,14.36 L57.384,14.36 C58.0800035,12.8239923 58.428,11.1320092 58.428,9.284 C58.428,7.45999088 58.0440038,5.72000828 57.276,4.064 L6.804,4.064 L6.804,5.504 L1.62,5.504 C2.38800384,6.39200444 3.21599556,6.97999856 4.104,7.268 C4.99200444,7.55600144 6.07199364,7.7 7.344,7.7 C7.63200144,7.7 8.075997,7.69400006 8.676,7.682 C9.276003,7.66999994 9.73199844,7.664 10.044,7.664 L10.044,6.8 L10.584,6.8 L10.584,7.664 L16.848,7.664 L16.848,6.8 L17.388,6.8 L17.388,7.664 L20.952,7.664 L22.68,6.8 L22.896,7.268 L20.988,8.204 L6.264,8.204 C4.77599256,8.204 3.48600546,7.7840042 2.394,6.944 C1.30199454,6.1039958 0.50400252,4.9640072 0,3.524 L57.024,3.524 C56.5199975,2.63599556 56.0760019,1.96400228 55.692,1.508 L56.34,1.508 C58.0920088,3.83601164 58.968,6.58398416 58.968,9.752 C58.968,11.7920102 58.3920058,13.7959902 57.24,15.764 L58.608,15.764 C59.6400052,13.7959902 60.156,11.6480116 60.156,9.32 C60.156,6.60798644 59.3040085,3.90801344 57.6,1.22 C57.5039995,1.02799904 57.4080005,0.88400048 57.312,0.788 L63.648,0.788 Z M6.264,4.964 L6.264,4.064 L0.72,4.064 C0.81600048,4.28000108 0.9839988,4.57999808 1.224,4.964 L6.264,4.964 Z M36.36,17.024 C36.36,17.5760028 36.156002,18.049998 35.748,18.446 C35.339998,18.842002 34.8600028,19.04 34.308,19.04 C33.9479982,19.04 33.6360013,18.9560008 33.372,18.788 L33.624,18.32 C33.816001,18.4400006 34.0559986,18.5 34.344,18.5 C34.7760022,18.5 35.1359986,18.3620014 35.424,18.086 C35.7120014,17.8099986 35.856,17.4560022 35.856,17.024 L36.36,17.024 Z M56.196,11.804 L51.408,11.804 C51.1679988,12.3560028 50.8020025,12.7999983 50.31,13.136 C49.8179975,13.4720017 49.272003,13.64 48.672,13.64 C48.4079987,13.64 48.2040007,13.6280001 48.06,13.604 L48.168,13.064 C48.4080012,13.1120002 48.5879994,13.136 48.708,13.136 C49.2360026,13.136 49.7159978,12.9560018 50.148,12.596 C50.5800022,12.2359982 50.8799992,11.7920026 51.048,11.264 L56.196,11.264 L56.196,11.804 Z" id="A" fill="#000000"></path>
    </g>
</svg>