<?xml version="1.0" encoding="utf-8"?>
<svg version="1.1" xmlns="http://www.w3.org/2000/svg" xmlns:xlink="http://www.w3.org/1999/xlink" width="458.05px" height="299.45px" viewBox="0, 0, 458.05, 299.45">
  <defs><filter x="-16%" y="-14%" width="132%" height="156.67804747932783%" id="shadow">
  <feOffset dx="0" dy="25" in="SourceAlpha" result="so"/>
  <feGaussianBlur stdDeviation="27.5" in="so" result="sb"/>
  <feColorMatrix values="0 0 0 0 0   0 0 0 0 0   0 0 0 0 0  0 0 0 0.5 0"  type="matrix" in="sb" result="sm"/>
  <feMerge>
    <feMergeNode in="sm"/>
    <feMergeNode in="SourceGraphic"/>
  </feMerge>
</filter>
    <linearGradient x1="50%" y1="0%" x2="50%" y2="100%" id="tb">
      <stop stop-color="#FFFFFF" offset="0%"/>
      <stop stop-color="#F5F4F5" offset="5%"/>
      <stop stop-color="#D3D3D3" offset="100%"/>
    </linearGradient>
  </defs>
  <g filter="url(#shadow)" transform="translate(55, 25)" fill="none">
    <rect width="346.05" height="187.45" rx="6" stroke="#000000" stroke-opacity="0.2" fill="#FFFFFF"/>

    <path d="M6,0 C3,0 0,3 0,6 L0,22 L346.05,22 L346.05,6 C346.05,3 343.05,0 340.05,0 Z" fill="url(#tb)"/>

    <text x="173.025" y="16" font-family="HelveticaNeue, Helvetica Neue" font-size="13" letter-spacing="0.4" fill="#464646" text-anchor="middle">
      ⚡️Terminal
    </text>
    <g transform="translate(9, 6)">
      <g>
        <circle fill="#FF5F52" cx="5" cy="5" r="5.25"/>
        <circle stroke="#E33E32" stroke-width="1" cx="5" cy="5" r="5.5"/>
      </g>
      <g>
        <circle fill="#FFBE05" cx="25" cy="5" r="5.25"/>
        <circle stroke="#E2A100" stroke-width="1" cx="25" cy="5" r="5.5"/>
      </g>
      <g>
        <circle fill="#15CC35" cx="45" cy="5" r="5.25"/>
        <circle stroke="#17B230" stroke-width="1" cx="45" cy="5" r="5.5"/>
      </g>
    </g>

    <path d="M346.05,22 L346.05,181.45 C 346.05 184.45, 343.05 187.45, 340.05 187.45 L6,187.45 C 3 187.45, 0 184.45, 0 181.45 L0,22 Z" fill="#FFFFFF"/>

    <line x1="0" y1="22.5" x2="346.05" y2="22.5" stroke="#7E7E7E" shape-rendering="crispEdges"/>

    <g transform="translate(5, 28)" fill="#000000" font-family="Courier" font-size="14">
      <text x="84.01" y="14.55">          &#x1F3B4; THE &#x1F5D3; </text><text x="168.03" y="14.55" font-weight="bold" fill="#4169E1">DAILY</text><rect x="226.84" y="0" width="8.4" height="19" fill="#DAA520" opacity="1"/><rect x="235.24" y="0" width="16.8" height="19" fill="#32CD32" opacity="1"/><text x="235.24" y="14.55"> &#x33D2;</text><text x="58.81" y="33.55">       Whatsup: </text><path d="M134.421875,35.5146875 L277.2451171875,35.5146875 Z" stroke="#FFFFFF"/><text x="134.42" y="33.55">ansi-svg-terminal</text><text x="0" y="71.55" fill="#32CD32">&#x1F44B; Hello</text><text x="67.21" y="71.55">, </text><text x="84.01" y="71.55" fill="#87CEEB">World</text><text x="134.42" y="71.55"> &#x1F30F;</text><text x="151.22" y="71.55" fill="#FF4500">!</text><rect x="0" y="76" width="16.8" height="19" fill="#B22222" opacity="1"/><text x="0" y="90.55">&#x1F44B;</text><rect x="16.8" y="76" width="16.8" height="19" fill="#DAA520" opacity="1"/><text x="16.8" y="90.55">&#x1F984;</text><rect x="33.61" y="76" width="16.8" height="19" fill="#32CD32" opacity="1"/><text x="33.61" y="90.55">&#x1F418;</text><path d="M58.8095703125,86.3546875 L75.6123046875,86.3546875 Z" stroke="#FFFFFF"/><text x="58.81" y="90.55" font-style="italic">13</text><text x="75.61" y="90.55" font-weight="bold">3</text><path d="M84.013671875,92.5146875 L92.4150390625,92.5146875 Z" stroke="#FFFFFF"/><text x="84.01" y="90.55">7</text><rect x="100.82" y="76" width="16.8" height="19" fill="#008B8B" opacity="1"/><text x="100.82" y="90.55">&#x1F344;</text><rect x="117.62" y="76" width="16.8" height="19" fill="#4169E1" opacity="1"/><text x="117.62" y="90.55">&#x1F383;</text><rect x="134.42" y="76" width="16.8" height="19" fill="#9932CC" opacity="1"/><text x="134.42" y="90.55">&#x1F426;</text><rect x="0" y="114" width="58.81" height="19" fill="#FFFF00" opacity="1"/><text x="0" y="128.55">&#xA9;&#xFE0F; 2018</text><rect x="67.21" y="114" width="109.22" height="19" fill="#ADFF2F" opacity="1"/><text x="67.21" y="128.55">Art Deco Code</text>
    </g>
  </g>
</svg>