<?xml version="1.0" encoding="UTF-8" standalone="no"?>
<svg width="114px" height="33px" viewBox="0 0 114 33" version="1.1" xmlns="http://www.w3.org/2000/svg" xmlns:xlink="http://www.w3.org/1999/xlink">
    <!-- Generator: Sketch 43.1 (39012) - http://www.bohemiancoding.com/sketch -->
    <title>Y</title>
    <desc>Created with Sketch.</desc>
    <defs></defs>
    <g id="Page-1" stroke="none" stroke-width="1" fill="none" fill-rule="evenodd">
        <path d="M0.90234375,19.5058594 C0.90234375,17.8417886 1.51171266,16.4091857 2.73046875,15.2080078 C3.94922484,14.0068299 5.40233531,13.40625 7.08984375,13.40625 C8.8007898,13.40625 10.2597596,14.0097596 11.4667969,15.2167969 C12.6738342,16.4238342 13.2773438,17.8828039 13.2773438,19.59375 C13.2773438,21.2929772 12.6738342,22.7490174 11.4667969,23.9619141 C10.2597596,25.1748108 8.80664912,25.78125 7.10742188,25.78125 C5.3730382,25.78125 3.90527944,25.1748108 2.70410156,23.9619141 C1.50292368,22.7490174 0.90234375,21.2636807 0.90234375,19.5058594 Z M112.922002,31.908 L42.4700015,31.908 L42.4700015,5.988 C67.7181278,9.7080186 91.2018929,18.2879328 112.922002,31.728 L112.922002,31.908 Z M112.922002,29.172 C97.9699268,20.0759545 82.0700858,13.2360229 65.2220015,8.652 L65.2220015,6.456 C73.1420411,8.54401044 81.0079625,11.3759821 88.8200015,14.952 C96.6320406,18.5280179 104.66596,22.7759754 112.922002,27.696 L112.922002,29.172 Z M112.922002,25.248 C104.64196,20.4719761 97.0880357,16.4520163 90.2600015,13.188 C83.4319674,9.92398368 76.5140366,7.29600996 69.5060015,5.304 L69.5060015,3.072 C74.9300286,4.56000744 80.8339696,6.81598488 87.2180015,9.84 L87.2180015,1.2 C88.4420076,1.4400012 89.5579965,1.93799622 90.5660015,2.694 C91.5740066,3.45000378 92.3539988,4.37999448 92.9060015,5.484 L92.9060015,12.612 C93.794006,12.9720018 94.7419965,13.4759968 95.7500015,14.124 L95.7500015,5.34 L112.922002,5.34 L112.922002,9.228 L103.346002,9.228 C102.649998,8.21999496 101.756007,7.41000306 100.664002,6.798 C99.5719961,6.18599694 98.4140076,5.83200048 97.1900015,5.736 C99.1340112,6.55200408 100.537997,7.84799112 101.402002,9.624 L101.402002,17.184 C102.170005,17.5680019 103.093996,18.0839968 104.174002,18.732 L104.174002,10.452 L112.922002,10.452 L112.922002,14.34 L111.770002,14.34 C111.073998,13.331995 110.180007,12.5220031 109.088002,11.91 C107.995996,11.2979969 106.838008,10.9560004 105.614002,10.884 C107.510011,11.6280037 108.925997,12.9119909 109.862002,14.736 L109.862002,21.972 C110.990007,22.5960031 112.009997,23.1839972 112.922002,23.736 L112.922002,25.248 Z" id="Y" stroke="#B9BF26" fill="#F8E81C"></path>
    </g>
</svg>